<?xml version="1.0" encoding="UTF-8" standalone="no"?>
<svg width="60px" height="60px" viewBox="0 0 60 60" version="1.1" xmlns="http://www.w3.org/2000/svg" xmlns:xlink="http://www.w3.org/1999/xlink" xmlns:sketch="http://www.bohemiancoding.com/sketch/ns">
    <!-- Generator: Sketch 3.2.2 (9983) - http://www.bohemiancoding.com/sketch -->
    <title>Measurebody</title>
    <desc>Created with Sketch.</desc>
    <defs></defs>
    <g id="stroked" stroke="none" stroke-width="1" fill="none" fill-rule="evenodd" sketch:type="MSPage">
        <g id="Care" sketch:type="MSLayerGroup" transform="translate(-838.000000, -722.000000)" stroke="#535353" stroke-width="2" stroke-linejoin="round">
            <g id="Measurebody" transform="translate(842.000000, 738.000000)" sketch:type="MSShapeGroup">
                <path d="M51,18 L53,18 L53,27.5 C53,32.7467051 48.7395709,37 43.496912,37 L10,37 L10,26 L43.0063223,26 C47.4117595,26 51,22.418278 51,18 Z" id="Rectangle-1379" stroke-linecap="round"></path>
                <rect id="Rectangle-1383" stroke-linecap="round" x="0" y="26" width="12" height="11"></rect>
                <path d="M51,0 L53,0 L53,9.5 C53,14.7467051 48.741683,19 43.4957921,19 L11,19 L11,8 L43.0063223,8 C47.4117595,8 51,4.418278 51,0 Z" id="Rectangle-1379" stroke-linecap="round" transform="translate(32.000000, 9.500000) scale(1, -1) translate(-32.000000, -9.500000) "></path>
                <path d="M17,28 L17,31" id="Line" stroke-linecap="square"></path>
                <path d="M24,28 L24,31" id="Line" stroke-linecap="square"></path>
                <path d="M31,28 L31,31" id="Line" stroke-linecap="square"></path>
                <path d="M38,28 L38,31" id="Line" stroke-linecap="square"></path>
                <path d="M46,27 L46,29" id="Line" stroke-linecap="square"></path>
            </g>
        </g>
    </g>
</svg>