<svg xmlns="http://www.w3.org/2000/svg" width="18.496" height="18.5" viewBox="0 0 18.496 18.5">
  <path id="Path_2524" data-name="Path 2524" d="M1.156,2.313h.886L5.261,12.488a1.157,1.157,0,0,0,1.1.809h8.672a1.139,1.139,0,0,0,1.1-.809l2.313-7.516a1.15,1.15,0,0,0-.771-1.445.9.9,0,0,0-.328-.058H4.837L3.989.809A1.157,1.157,0,0,0,2.891,0H1.156a1.156,1.156,0,0,0,0,2.313ZM15.783,5.781l-1.6,5.2H7.207l-1.638-5.2ZM7.516,18.5A1.734,1.734,0,1,1,9.25,16.766,1.727,1.727,0,0,1,7.516,18.5Zm4.625-1.734A1.734,1.734,0,1,1,13.875,18.5,1.727,1.727,0,0,1,12.141,16.766Z"/>
</svg>
